<?xml version="1.0" encoding="utf-8"?>
<!-- Generator: Adobe Illustrator 16.0.0, SVG Export Plug-In . SVG Version: 6.00 Build 0)  -->
<!DOCTYPE svg PUBLIC "-//W3C//DTD SVG 1.0//EN" "http://www.w3.org/TR/2001/REC-SVG-20010904/DTD/svg10.dtd">
<svg version="1.0" id="Layer_1" xmlns="http://www.w3.org/2000/svg" xmlns:xlink="http://www.w3.org/1999/xlink" x="0px" y="0px"
	 width="100px" height="100px" viewBox="0 0 100 100" enable-background="new 0 0 100 100" xml:space="preserve">
<polygon fill="#E9EAEF" stroke="#335C5F" stroke-width="1.5" stroke-linecap="round" stroke-linejoin="round" stroke-miterlimit="10" points="
	37.24,61.873 90,61.873 80.626,52.5 38.412,52.5 "/>
<path fill="#E9EAEF" stroke="#335C5F" stroke-width="1.5" stroke-linecap="round" stroke-linejoin="round" stroke-miterlimit="10" d="
	M24.376,15v27.499h10.841l3.48,3.479h0.868c0.96,0,1.739,0.779,1.739,1.74v2.497h-2.607L38.412,52.5h42.214V15H24.376z"/>
<rect x="47.81" y="15" fill="#70929F" stroke="#335C5F" stroke-width="1.5" stroke-linecap="round" stroke-linejoin="round" stroke-miterlimit="10" width="9.377" height="3.515"/>
<polygon fill="#75C6A4" stroke="#335C5F" stroke-width="1.5" stroke-linecap="round" stroke-linejoin="round" stroke-miterlimit="10" points="
	16.956,85 34.349,85 38.698,50.215 12.608,50.215 "/>
<polygon fill="#65AD90" points="34.948,50.215 30.599,85 34.349,85 38.698,50.215 "/>
<path fill="#46C6F1" stroke="#335C5F" stroke-width="1.5" stroke-linecap="round" stroke-linejoin="round" stroke-miterlimit="10" d="
	M27.89,18.515v23.984h7.327l3.48,3.479h0.868c0.96,0,1.739,0.779,1.739,1.74v1.264h35.804V18.515H27.89z"/>
<rect x="72.109" y="18.515" fill="#3EAED3" width="4.999" height="30.467"/>
<polygon fill="#70929F" stroke="#335C5F" stroke-width="1.5" stroke-linecap="round" stroke-linejoin="round" stroke-miterlimit="10" points="
	37.605,58.941 82.383,58.941 78.865,55.428 38.046,55.428 "/>
<polygon fill="#62818C" points="78.865,55.428 73.866,55.428 77.384,58.941 82.383,58.941 "/>
<path fill="#D7DAE7" stroke="#335C5F" stroke-width="1.5" stroke-linecap="round" stroke-linejoin="round" stroke-miterlimit="10" d="
	M37.24,61.873l-0.585,4.686h48.657c2.587,0,4.688-2.098,4.688-4.689L37.24,61.873z"/>
<path fill="#BBBECA" d="M85.001,61.869c0,2.592-2.102,4.689-4.688,4.689h4.999c2.587,0,4.688-2.098,4.688-4.689H85.001z"/>
<path fill="none" stroke="#335C5F" stroke-width="1.5" stroke-linecap="round" stroke-linejoin="round" stroke-miterlimit="10" d="
	M27.89,18.515v23.984h7.327l3.48,3.479h0.868c0.96,0,1.739,0.779,1.739,1.74v1.264h35.804V18.515H27.89z"/>
<polygon fill="none" stroke="#335C5F" stroke-width="1.5" stroke-linecap="round" stroke-linejoin="round" stroke-miterlimit="10" points="
	37.605,58.941 82.383,58.941 78.865,55.428 38.046,55.428 "/>
<path fill="none" stroke="#335C5F" stroke-width="1.5" stroke-linecap="round" stroke-linejoin="round" stroke-miterlimit="10" d="
	M37.24,61.873l-0.585,4.686h48.657c2.587,0,4.688-2.098,4.688-4.689L37.24,61.873z"/>
<polygon fill="none" stroke="#335C5F" stroke-width="1.5" stroke-linecap="round" stroke-linejoin="round" stroke-miterlimit="10" points="
	16.956,85 34.349,85 38.698,50.215 12.608,50.215 "/>
<polygon fill="#FADF7E" stroke="#335C5F" stroke-width="1.5" stroke-linecap="round" stroke-linejoin="round" stroke-miterlimit="10" points="
	38.698,45.978 12.608,45.978 16.088,42.499 35.217,42.499 "/>
<polygon fill="#D8C26F" points="35.217,42.499 31.467,42.499 34.948,45.978 38.698,45.978 "/>
<path fill="#FADF7E" stroke="#335C5F" stroke-width="1.5" stroke-linecap="round" stroke-linejoin="round" stroke-miterlimit="10" d="
	M10,47.718c0-0.961,0.778-1.74,1.74-1.74h27.826c0.96,0,1.739,0.779,1.739,1.74v2.497L10,50.219V47.718z"/>
<path fill="#D8C26F" d="M39.566,45.978h-3.75c0.961,0,1.739,0.779,1.739,1.74v2.497h3.75v-2.497
	C41.305,46.757,40.526,45.978,39.566,45.978z"/>
<polygon fill="none" stroke="#335C5F" stroke-width="1.5" stroke-linecap="round" stroke-linejoin="round" stroke-miterlimit="10" points="
	38.698,45.978 12.608,45.978 16.088,42.499 35.217,42.499 "/>
<path fill="none" stroke="#335C5F" stroke-width="1.5" stroke-linecap="round" stroke-linejoin="round" stroke-miterlimit="10" d="
	M10,47.718c0-0.961,0.778-1.74,1.74-1.74h27.826c0.96,0,1.739,0.779,1.739,1.74v2.497L10,50.219V47.718z"/>
</svg>
