<?xml version="1.0" encoding="utf-8"?>
<!-- Generator: Adobe Illustrator 16.0.0, SVG Export Plug-In . SVG Version: 6.00 Build 0)  -->
<!DOCTYPE svg PUBLIC "-//W3C//DTD SVG 1.0//EN" "http://www.w3.org/TR/2001/REC-SVG-20010904/DTD/svg10.dtd">
<svg version="1.0" id="Layer_1" xmlns="http://www.w3.org/2000/svg" xmlns:xlink="http://www.w3.org/1999/xlink" x="0px" y="0px"
	 width="100px" height="100px" viewBox="0 0 100 100" enable-background="new 0 0 100 100" xml:space="preserve">
<path fill="#E9EAEF" stroke="#335C5F" stroke-width="1.5" stroke-linecap="round" stroke-linejoin="round" stroke-miterlimit="10" d="
	M90,12.5c0-1.38-1.116-2.5-2.498-2.5H22.5c-1.38,0-2.5,1.12-2.5,2.5v37.498h70V12.5z"/>
<path fill="#CACCD1" d="M87.502,10H83.75c1.382,0,2.498,1.12,2.498,2.5v37.498H90V12.5C90,11.12,88.884,10,87.502,10z"/>
<path fill="#E9EAEF" stroke="#335C5F" stroke-width="1.5" stroke-linecap="round" stroke-linejoin="round" stroke-miterlimit="10" d="
	M61.765,85.146H43.969l-1.618,1.619h-9.704l-1.618-1.619H13.237V58.229c0-1.784,1.447-3.231,3.233-3.231h42.059
	c1.791,0,3.235,1.447,3.235,3.231V85.146z"/>
<path fill="#CACCD1" d="M58.529,54.997h-3.75c1.791,0,3.235,1.447,3.235,3.231v26.917h3.75V58.229
	C61.765,56.444,60.32,54.997,58.529,54.997z"/>
<path fill="#E9EAEF" stroke="#335C5F" stroke-width="1.5" stroke-linecap="round" stroke-linejoin="round" stroke-miterlimit="10" d="
	M90,87.375C90,88.821,88.825,90,87.378,90H75.123c-1.45,0-2.626-1.179-2.626-2.625V65.126c0-1.45,1.176-2.629,2.623-2.629h12.254
	c1.451,0,2.626,1.179,2.626,2.629V87.375z"/>
<path fill="#CACCD1" d="M87.374,62.497h-2.501c1.45,0,2.625,1.179,2.625,2.629v22.249c0,1.446-1.175,2.625-2.621,2.625h2.501
	C88.825,90,90,88.821,90,87.375V65.126C90,63.676,88.825,62.497,87.374,62.497z"/>
<rect x="23.751" y="13.75" fill="#46C6F1" stroke="#335C5F" stroke-width="1.5" stroke-linecap="round" stroke-linejoin="round" stroke-miterlimit="10" width="62.497" height="32.498"/>
<rect x="82.498" y="13.75" fill="#3EAED3" width="3.75" height="32.498"/>
<rect x="16.987" y="58.749" fill="#46C6F1" stroke="#335C5F" stroke-width="1.5" stroke-linecap="round" stroke-linejoin="round" stroke-miterlimit="10" width="41.028" height="22.651"/>
<rect x="54.266" y="58.749" fill="#3EAED3" width="3.75" height="22.651"/>
<rect x="74.999" y="66.249" fill="#46C6F1" stroke="#335C5F" stroke-width="1.5" stroke-linecap="round" stroke-linejoin="round" stroke-miterlimit="10" width="12.499" height="19.999"/>
<rect x="84.999" y="66.249" fill="#3EAED3" width="2.499" height="19.999"/>
<rect x="48.438" y="49.998" fill="#70929F" stroke="#335C5F" stroke-width="1.5" stroke-linecap="round" stroke-linejoin="round" stroke-miterlimit="10" width="13.126" height="5.003"/>
<path fill="#D7DAE7" stroke="#335C5F" stroke-width="1.5" stroke-linecap="round" stroke-linejoin="round" stroke-miterlimit="10" d="
	M10,85.959c0-0.448,0.364-0.813,0.809-0.813h20.22l1.618,1.619h9.704l1.618-1.619h20.22c0.451,0,0.81,0.365,0.81,0.813v3.231
	c0,0.447-0.358,0.81-0.81,0.81h-53.38C10.364,90,10,89.638,10,89.19V85.959z"/>
<path fill="#BBBECA" d="M64.188,85.146h-3.749c0.451,0,0.81,0.365,0.81,0.813v3.231c0,0.447-0.358,0.81-0.81,0.81h3.749
	c0.451,0,0.81-0.362,0.81-0.81v-3.231C64.998,85.511,64.64,85.146,64.188,85.146z"/>
<path fill="#70929F" stroke="#335C5F" stroke-width="1.5" stroke-linecap="round" stroke-linejoin="round" stroke-miterlimit="10" d="
	M61.675,57.498h10.826l-2.505-2.501H58.529C60.065,54.997,61.341,56.065,61.675,57.498z"/>
<path fill="#FADF7E" stroke="#335C5F" stroke-width="1.5" stroke-linecap="round" stroke-linejoin="round" stroke-miterlimit="10" d="
	M83.281,76.777l-2.993,2.994c-0.138,0.138-0.328,0.228-0.541,0.228c-0.414,0-0.748-0.335-0.748-0.752v-6.001
	c0-0.413,0.334-0.748,0.748-0.748c0.213,0,0.403,0.087,0.541,0.228l2.993,2.99C83.574,76.009,83.574,76.484,83.281,76.777z"/>
<path fill="#D8C26F" d="M79.747,75c0.213,0,0.403,0.086,0.541,0.228l2.273,2.27l0.72-0.72c0.293-0.293,0.293-0.769,0-1.062
	l-2.993-2.99c-0.138-0.141-0.328-0.228-0.541-0.228c-0.414,0-0.748,0.335-0.748,0.748v2.501C78.999,75.334,79.333,75,79.747,75z"/>
<path fill="#FADF7E" stroke="#335C5F" stroke-width="1.5" stroke-linecap="round" stroke-linejoin="round" stroke-miterlimit="10" d="
	M40.885,70.959l-4.986,4.984c-0.229,0.234-0.548,0.379-0.901,0.379c-0.688,0-1.249-0.555-1.249-1.247V65.074
	c0-0.689,0.561-1.251,1.249-1.251c0.354,0,0.672,0.148,0.901,0.38l4.986,4.984C41.372,69.677,41.372,70.47,40.885,70.959z"/>
<path fill="#D8C26F" d="M34.998,66.325c0.354,0,0.672,0.147,0.901,0.379l4.621,4.62l0.365-0.365c0.487-0.489,0.487-1.282,0-1.771
	l-4.986-4.984c-0.229-0.231-0.548-0.38-0.901-0.38c-0.688,0-1.249,0.562-1.249,1.251v2.501
	C33.749,66.887,34.309,66.325,34.998,66.325z"/>
<path fill="#FADF7E" stroke="#335C5F" stroke-width="1.5" stroke-linecap="round" stroke-linejoin="round" stroke-miterlimit="10" d="
	M59.738,31.241l-6.979,6.977c-0.324,0.325-0.769,0.53-1.265,0.53c-0.963,0-1.746-0.778-1.746-1.746V22.999
	c0-0.965,0.783-1.748,1.746-1.748c0.496,0,0.94,0.204,1.265,0.53l6.979,6.979C60.424,29.446,60.424,30.556,59.738,31.241z"/>
<path fill="#D8C26F" d="M51.494,23.75c0.496,0,0.94,0.205,1.265,0.53l6.97,6.97l0.01-0.009c0.686-0.686,0.686-1.795,0-2.48
	l-6.979-6.979c-0.324-0.326-0.769-0.53-1.265-0.53c-0.963,0-1.746,0.783-1.746,1.748v2.499C49.748,24.534,50.531,23.75,51.494,23.75
	z"/>
<path fill="none" stroke="#335C5F" stroke-width="1.5" stroke-linecap="round" stroke-linejoin="round" stroke-miterlimit="10" d="
	M90,12.5c0-1.38-1.116-2.5-2.498-2.5H22.5c-1.38,0-2.5,1.12-2.5,2.5v37.498h70V12.5z"/>
<path fill="none" stroke="#335C5F" stroke-width="1.5" stroke-linecap="round" stroke-linejoin="round" stroke-miterlimit="10" d="
	M61.765,85.146H43.969l-1.618,1.619h-9.704l-1.618-1.619H13.237V58.229c0-1.784,1.447-3.231,3.233-3.231h42.059
	c1.791,0,3.235,1.447,3.235,3.231V85.146z"/>
<path fill="none" stroke="#335C5F" stroke-width="1.5" stroke-linecap="round" stroke-linejoin="round" stroke-miterlimit="10" d="
	M90,87.375C90,88.821,88.825,90,87.378,90H75.123c-1.45,0-2.626-1.179-2.626-2.625V65.126c0-1.45,1.176-2.629,2.623-2.629h12.254
	c1.451,0,2.626,1.179,2.626,2.629V87.375z"/>
<rect x="23.751" y="13.75" fill="none" stroke="#335C5F" stroke-width="1.5" stroke-linecap="round" stroke-linejoin="round" stroke-miterlimit="10" width="62.497" height="32.498"/>
<rect x="16.987" y="58.749" fill="none" stroke="#335C5F" stroke-width="1.5" stroke-linecap="round" stroke-linejoin="round" stroke-miterlimit="10" width="41.028" height="22.651"/>
<rect x="74.999" y="66.249" fill="none" stroke="#335C5F" stroke-width="1.5" stroke-linecap="round" stroke-linejoin="round" stroke-miterlimit="10" width="12.499" height="19.999"/>
<path fill="none" stroke="#335C5F" stroke-width="1.5" stroke-linecap="round" stroke-linejoin="round" stroke-miterlimit="10" d="
	M10,85.959c0-0.448,0.364-0.813,0.809-0.813h20.22l1.618,1.619h9.704l1.618-1.619h20.22c0.451,0,0.81,0.365,0.81,0.813v3.231
	c0,0.447-0.358,0.81-0.81,0.81h-53.38C10.364,90,10,89.638,10,89.19V85.959z"/>
<path fill="none" stroke="#335C5F" stroke-width="1.5" stroke-linecap="round" stroke-linejoin="round" stroke-miterlimit="10" d="
	M83.281,76.777l-2.993,2.994c-0.138,0.138-0.328,0.228-0.541,0.228c-0.414,0-0.748-0.335-0.748-0.752v-6.001
	c0-0.413,0.334-0.748,0.748-0.748c0.213,0,0.403,0.087,0.541,0.228l2.993,2.99C83.574,76.009,83.574,76.484,83.281,76.777z"/>
<path fill="none" stroke="#335C5F" stroke-width="1.5" stroke-linecap="round" stroke-linejoin="round" stroke-miterlimit="10" d="
	M40.885,70.959l-4.986,4.984c-0.229,0.234-0.548,0.379-0.901,0.379c-0.688,0-1.249-0.555-1.249-1.247V65.074
	c0-0.689,0.561-1.251,1.249-1.251c0.354,0,0.672,0.148,0.901,0.38l4.986,4.984C41.372,69.677,41.372,70.47,40.885,70.959z"/>
<path fill="none" stroke="#335C5F" stroke-width="1.5" stroke-linecap="round" stroke-linejoin="round" stroke-miterlimit="10" d="
	M59.738,31.241l-6.979,6.977c-0.324,0.325-0.769,0.53-1.265,0.53c-0.963,0-1.746-0.778-1.746-1.746V22.999
	c0-0.965,0.783-1.748,1.746-1.748c0.496,0,0.94,0.204,1.265,0.53l6.979,6.979C60.424,29.446,60.424,30.556,59.738,31.241z"/>
</svg>
