<?xml version="1.0" encoding="utf-8"?>
<!-- Generator: Adobe Illustrator 16.0.0, SVG Export Plug-In . SVG Version: 6.00 Build 0)  -->
<!DOCTYPE svg PUBLIC "-//W3C//DTD SVG 1.0//EN" "http://www.w3.org/TR/2001/REC-SVG-20010904/DTD/svg10.dtd">
<svg version="1.0" id="Layer_1" xmlns="http://www.w3.org/2000/svg" xmlns:xlink="http://www.w3.org/1999/xlink" x="0px" y="0px"
	 width="100px" height="100px" viewBox="0 0 100 100" enable-background="new 0 0 100 100" xml:space="preserve">
<path fill="#46C6F1" stroke="#335C5F" stroke-width="1.5" stroke-linecap="round" stroke-linejoin="round" stroke-miterlimit="10" d="
	M55.554,54.439c1.834,0,3.335,1.501,3.335,3.335v14.448H90l-0.004-14.827c0-2.469-0.998-4.704-2.615-6.32L76.21,46.448
	c-2.416,3.8-6.651,6.33-11.49,6.33c-4.835,0-9.07-2.529-11.486-6.33l-11.172,4.627c-0.937,0.937-1.66,2.087-2.107,3.364H55.554z"/>
<path fill="#3EAED3" d="M89.996,57.396c0-2.469-0.998-4.704-2.615-6.32l-3.05-1.263c1.452,1.696,2.332,3.895,2.332,6.304
	l0.004,16.106H90L89.996,57.396z"/>
<path fill="#FADF7E" stroke="#335C5F" stroke-width="1.5" stroke-linecap="round" stroke-linejoin="round" stroke-miterlimit="10" d="
	M75.691,22.861v-3.157C75.023,14.235,70.372,10,64.724,10c-5.65,0-10.299,4.235-10.969,9.704v3.157
	c-1.435,0.51-2.463,1.859-2.463,3.461c0,3.146,1.596,5.69,3.582,5.779c1.828,5.632,5.55,9.497,9.85,9.497
	c4.298,0,8.016-3.865,9.847-9.497c1.984-0.088,3.583-2.633,3.583-5.779C78.153,24.721,77.121,23.371,75.691,22.861z"/>
<path fill="#3EAED3" d="M61.113,72.223V57.774c0-3.063-2.495-5.557-5.56-5.557H41.117c-0.482,0.679-0.882,1.422-1.163,2.222h15.599
	c1.834,0,3.335,1.501,3.335,3.335v14.448H61.113z"/>
<path fill="#E9EAEF" stroke="#335C5F" stroke-width="1.5" stroke-linecap="round" stroke-linejoin="round" stroke-miterlimit="10" d="
	M58.889,82.219c0,1.834-1.501,3.335-3.335,3.335H13.335C11.5,85.554,10,84.053,10,82.219V57.774c0-1.834,1.5-3.335,3.335-3.335
	h42.219c1.834,0,3.335,1.501,3.335,3.335V82.219z"/>
<path fill="#CACCD1" d="M55.554,54.439h-3.332c1.834,0,3.334,1.501,3.334,3.335v24.444c0,1.834-1.5,3.335-3.334,3.335h3.332
	c1.834,0,3.335-1.501,3.335-3.335V57.774C58.889,55.94,57.388,54.439,55.554,54.439z"/>
<path fill="#46C6F1" stroke="#335C5F" stroke-width="1.5" stroke-linecap="round" stroke-linejoin="round" stroke-miterlimit="10" d="
	M37.777,70c0,1.841-1.491,3.335-3.332,3.335c-1.844,0-3.335-1.494-3.335-3.335s1.491-3.332,3.335-3.332
	C36.286,66.668,37.777,68.159,37.777,70z"/>
<path fill="#3EAED3" d="M34.446,66.668c-0.392,0-0.762,0.08-1.112,0.203c1.291,0.46,2.22,1.68,2.22,3.129
	c0,1.448-0.93,2.671-2.22,3.131c0.35,0.124,0.72,0.204,1.112,0.204c1.84,0,3.332-1.494,3.332-3.335S36.286,66.668,34.446,66.668z"/>
<path fill="none" stroke="#335C5F" stroke-width="1.5" stroke-linecap="round" stroke-linejoin="round" stroke-miterlimit="10" d="
	M78.329,56.666l1.947,15.557L78.329,56.666z"/>
<path fill="#46C6F1" stroke="#335C5F" stroke-width="1.5" stroke-linecap="round" stroke-linejoin="round" stroke-miterlimit="10" d="
	M66.083,24.579h6.805v1.945c0,1.072-0.876,1.948-1.945,1.948h-2.918c-1.068,0-1.941-0.876-1.941-1.948V24.579z"/>
<path fill="none" stroke="#335C5F" stroke-width="1.5" stroke-linecap="round" stroke-linejoin="round" stroke-miterlimit="10" d="
	M72.888,24.579l2.802-1.718L72.888,24.579z"/>
<path fill="none" stroke="#335C5F" stroke-width="1.5" stroke-linecap="round" stroke-linejoin="round" stroke-miterlimit="10" d="
	M63.36,24.579h2.723H63.36z"/>
<path fill="none" stroke="#335C5F" stroke-width="1.5" stroke-linecap="round" stroke-linejoin="round" stroke-miterlimit="10" d="
	M62.292,35.745c1.34,1.342,3.519,1.342,4.859,0C65.811,37.086,63.632,37.086,62.292,35.745z"/>
<path fill="#FADF7E" stroke="#335C5F" stroke-width="1.5" stroke-linecap="round" stroke-linejoin="round" stroke-miterlimit="10" d="
	M64.724,48.889c3.218,0,6.063-1.571,7.833-3.981c-0.535-0.258-1.032-0.585-1.448-1.001c-0.94-0.938-1.519-2.235-1.519-3.668v-0.429
	c-1.468,1.139-3.121,1.789-4.866,1.789c-1.748,0-3.399-0.649-4.869-1.789v0.429c0,1.433-0.582,2.731-1.52,3.668
	c-0.416,0.417-0.912,0.744-1.448,0.998C58.656,47.318,61.501,48.889,64.724,48.889z"/>
<path fill="#D8C26F" d="M69.992,42.247c-0.259-0.618-0.402-1.297-0.402-2.009v-0.429c-1.468,1.139-3.121,1.789-4.866,1.789
	c-1.748,0-3.399-0.649-4.869-1.789v0.429c0,0.712-0.145,1.391-0.404,2.009c1.627,1.019,3.411,1.572,5.273,1.572
	C66.584,43.819,68.367,43.266,69.992,42.247z"/>
<path fill="#E9EAEF" stroke="#335C5F" stroke-width="1.5" stroke-linecap="round" stroke-linejoin="round" stroke-miterlimit="10" d="
	M72.792,45.033c-0.082-0.033-0.156-0.088-0.235-0.125c-1.77,2.41-4.615,3.981-7.833,3.981c-3.223,0-6.067-1.571-7.837-3.984
	c-0.08,0.04-0.153,0.092-0.239,0.128l-3.414,1.415c2.416,3.8,6.651,6.33,11.486,6.33c4.839,0,9.074-2.529,11.49-6.33L72.792,45.033z
	"/>
<path fill="#D7DAE7" stroke="#335C5F" stroke-width="1.5" stroke-linecap="round" stroke-linejoin="round" stroke-miterlimit="10" d="
	M58.889,85.558H10v2.222C10,89.002,11.001,90,12.223,90h44.443c1.223,0,2.223-0.998,2.223-2.221V85.558z"/>
<path fill="#BBBECA" d="M55.556,85.558v2.222c0,1.223-1.001,2.221-2.223,2.221h3.333c1.223,0,2.223-0.998,2.223-2.221v-2.222H55.556
	z"/>
<path fill="#D8C26F" d="M55.593,22.29c0-6.225,4.63-11.366,10.633-12.174C65.732,10.048,65.232,10,64.72,10
	c-6.058,0-10.965,4.91-10.965,10.966v1.897c-1.433,0.508-2.463,1.856-2.463,3.462c0,3.143,1.594,5.686,3.58,5.774
	c1.828,5.634,5.548,9.499,9.848,9.499c0.525,0,1.04-0.06,1.547-0.172C60.242,40.185,55.593,32.093,55.593,22.29z"/>
<path fill="#46C6F1" stroke="#335C5F" stroke-width="1.5" stroke-linecap="round" stroke-linejoin="round" stroke-miterlimit="10" d="
	M63.36,24.579h-6.809v1.945c0,1.072,0.877,1.948,1.948,1.948h2.916c1.068,0,1.944-0.876,1.944-1.948V24.579z"/>
<path fill="#3EAED3" d="M70.665,24.579v1.945c0,1.072-0.876,1.948-1.944,1.948h2.222c1.069,0,1.945-0.876,1.945-1.948v-1.945H70.665
	z"/>
<path fill="#3EAED3" d="M61.139,24.579v1.945c0,1.072-0.875,1.948-1.945,1.948h2.223c1.068,0,1.944-0.876,1.944-1.948v-1.945H61.139
	z"/>
<path fill="none" stroke="#335C5F" stroke-width="1.5" stroke-linecap="round" stroke-linejoin="round" stroke-miterlimit="10" d="
	M56.552,24.579l-2.797-1.718L56.552,24.579z"/>
<path fill="#70929F" stroke="#335C5F" stroke-width="1.5" stroke-linecap="round" stroke-linejoin="round" stroke-miterlimit="10" d="
	M75.689,22.861c-3.038,0-5.788-1.231-7.778-3.221l0,0c-2.149-2.147-4.964-3.222-7.778-3.222c-3.525,0-6.378,2.885-6.378,6.443
	v-3.157C54.425,14.235,59.073,10,64.724,10c5.646,0,10.299,4.235,10.966,9.704V22.861z"/>
<path fill="#62818C" d="M64.724,10c-0.568,0-1.123,0.054-1.667,0.136c4.873,0.739,8.701,4.648,9.301,9.568v2.641
	c1.053,0.333,2.17,0.517,3.332,0.517v-3.157C75.022,14.235,70.37,10,64.724,10z"/>
<path fill="none" stroke="#335C5F" stroke-width="1.5" stroke-linecap="round" stroke-linejoin="round" stroke-miterlimit="10" d="
	M75.691,22.861v-3.157C75.023,14.235,70.372,10,64.724,10c-5.65,0-10.299,4.235-10.969,9.704v3.157
	c-1.435,0.51-2.463,1.859-2.463,3.461c0,3.146,1.596,5.69,3.582,5.779c1.828,5.632,5.55,9.497,9.85,9.497
	c4.298,0,8.016-3.865,9.847-9.497c1.984-0.088,3.583-2.633,3.583-5.779C78.153,24.721,77.121,23.371,75.691,22.861z"/>
<path fill="none" stroke="#335C5F" stroke-width="1.5" stroke-linecap="round" stroke-linejoin="round" stroke-miterlimit="10" d="
	M58.889,82.219c0,1.834-1.501,3.335-3.335,3.335H13.335C11.5,85.554,10,84.053,10,82.219V57.774c0-1.834,1.5-3.335,3.335-3.335
	h42.219c1.834,0,3.335,1.501,3.335,3.335V82.219z"/>
<path fill="none" stroke="#335C5F" stroke-width="1.5" stroke-linecap="round" stroke-linejoin="round" stroke-miterlimit="10" d="
	M37.777,70c0,1.841-1.491,3.335-3.332,3.335c-1.844,0-3.335-1.494-3.335-3.335s1.491-3.332,3.335-3.332
	C36.286,66.668,37.777,68.159,37.777,70z"/>
<path fill="none" stroke="#335C5F" stroke-width="1.5" stroke-linecap="round" stroke-linejoin="round" stroke-miterlimit="10" d="
	M66.083,24.579h6.805v1.945c0,1.072-0.876,1.948-1.945,1.948h-2.918c-1.068,0-1.941-0.876-1.941-1.948V24.579z"/>
<path fill="none" stroke="#335C5F" stroke-width="1.5" stroke-linecap="round" stroke-linejoin="round" stroke-miterlimit="10" d="
	M64.724,48.889c3.218,0,6.063-1.571,7.833-3.981c-0.535-0.258-1.032-0.585-1.448-1.001c-0.94-0.938-1.519-2.235-1.519-3.668v-0.429
	c-1.468,1.139-3.121,1.789-4.866,1.789c-1.748,0-3.399-0.649-4.869-1.789v0.429c0,1.433-0.582,2.731-1.52,3.668
	c-0.416,0.417-0.912,0.744-1.448,0.998C58.656,47.318,61.501,48.889,64.724,48.889z"/>
<path fill="none" stroke="#335C5F" stroke-width="1.5" stroke-linecap="round" stroke-linejoin="round" stroke-miterlimit="10" d="
	M58.889,85.558H10v2.222C10,89.002,11.001,90,12.223,90h44.443c1.223,0,2.223-0.998,2.223-2.221V85.558z"/>
<path fill="none" stroke="#335C5F" stroke-width="1.5" stroke-linecap="round" stroke-linejoin="round" stroke-miterlimit="10" d="
	M63.36,24.579h-6.809v1.945c0,1.072,0.877,1.948,1.948,1.948h2.916c1.068,0,1.944-0.876,1.944-1.948V24.579z"/>
<path fill="none" stroke="#335C5F" stroke-width="1.5" stroke-linecap="round" stroke-linejoin="round" stroke-miterlimit="10" d="
	M75.689,22.861c-3.038,0-5.788-1.231-7.778-3.221l0,0c-2.149-2.147-4.964-3.222-7.778-3.222c-3.525,0-6.378,2.885-6.378,6.443
	v-3.157C54.425,14.235,59.073,10,64.724,10c5.646,0,10.299,4.235,10.966,9.704V22.861z"/>
<path fill="none" stroke="#335C5F" stroke-width="1.5" stroke-linecap="round" stroke-linejoin="round" stroke-miterlimit="10" d="
	M55.554,54.439c1.834,0,3.335,1.501,3.335,3.335v14.448H90l-0.004-14.827c0-2.469-0.998-4.704-2.615-6.32L76.21,46.448
	c-2.416,3.8-6.651,6.33-11.49,6.33c-4.835,0-9.07-2.529-11.486-6.33l-11.172,4.627c-0.937,0.937-1.66,2.087-2.107,3.364H55.554z"/>
</svg>
